<?xml version="1.0" standalone="no"?>
<!DOCTYPE svg PUBLIC "-//W3C//DTD SVG 20010904//EN"
 "http://www.w3.org/TR/2001/REC-SVG-20010904/DTD/svg10.dtd">
<svg version="1.0" xmlns="http://www.w3.org/2000/svg"
 width="100.000000pt" height="100.000000pt" viewBox="0 0 100.000000 100.000000"
 preserveAspectRatio="xMidYMid meet">
<metadata>
Created by potrace 1.14, written by Peter Selinger 2001-2017
</metadata>
<g transform="translate(0.000000,100.000000) scale(0.100000,-0.100000)"
fill="#000000" stroke="none">
<path d="M395 754 c-19 -42 -35 -78 -35 -79 0 -2 -45 -103 -100 -225 -55 -121
-100 -225 -100 -231 0 -5 7 -9 15 -9 8 0 15 -9 15 -19 0 -10 7 -22 16 -25 8
-3 12 -2 9 4 -3 6 -1 10 4 10 6 0 11 -4 11 -9 0 -5 12 -6 28 -2 19 6 30 3 40
-8 10 -14 11 -13 6 4 -5 15 -4 17 5 9 9 -8 18 -6 36 10 16 14 20 23 12 28 -8
5 -7 8 4 8 10 0 16 7 15 18 0 10 5 16 13 14 11 -2 12 0 3 11 -10 11 -9 17 3
27 8 7 15 9 15 4 0 -5 5 -2 10 6 9 13 10 13 10 0 0 -13 1 -13 10 0 9 13 10 13
10 0 0 -13 1 -13 10 0 8 12 10 12 10 1 0 -11 3 -11 15 -1 8 7 15 8 15 3 0 -11
30 -11 49 1 8 5 16 3 21 -5 7 -10 11 -10 24 0 13 11 16 11 16 0 0 -11 2 -11
10 1 6 9 10 11 10 3 0 -7 6 -10 14 -7 8 3 23 -14 40 -51 15 -30 31 -53 36 -50
4 3 10 -5 14 -18 5 -17 8 -19 15 -8 5 7 14 10 20 6 19 -11 61 -13 61 -2 0 6 5
6 13 0 15 -12 27 -11 52 4 11 7 14 13 7 13 -7 0 -10 4 -7 10 3 5 -2 10 -12 10
-15 0 -16 2 -3 10 10 6 11 10 3 10 -7 0 -13 9 -13 20 0 11 -5 20 -11 20 -6 0
-9 9 -6 20 3 10 0 18 -5 17 -6 -1 -14 11 -19 26 -4 16 -14 36 -21 45 -9 11 -9
14 -1 8 9 -5 11 -2 7 8 -3 9 -10 14 -14 11 -4 -3 -11 2 -14 11 -4 10 -2 13 7
9 6 -4 5 -1 -4 7 -9 7 -14 19 -12 26 3 6 0 12 -6 12 -6 0 -11 5 -11 11 0 5 6
7 13 4 6 -4 4 0 -5 8 -10 8 -18 22 -18 31 0 11 -5 14 -12 10 -8 -5 -9 -2 -5 9
3 9 2 19 -3 22 -6 3 -15 15 -21 27 -8 14 -8 18 0 14 7 -5 9 -1 5 8 -3 9 -10
16 -15 16 -5 0 -9 9 -9 20 0 11 -4 20 -10 20 -5 0 -9 3 -9 8 3 20 -2 32 -13
26 -7 -4 -8 -3 -4 4 4 6 -2 29 -13 50 -11 22 -17 43 -13 46 3 4 -2 4 -12 0
-13 -5 -17 -4 -12 4 4 8 2 10 -7 6 -8 -3 -18 -1 -22 5 -3 6 -37 11 -76 11
l-70 0 -34 -76z m174 -231 l30 -73 -64 0 c-35 0 -67 5 -70 10 -3 6 -1 10 5 10
7 0 9 7 6 15 -3 9 1 18 8 21 8 3 17 12 20 20 3 9 1 12 -4 9 -6 -3 -10 -2 -10
3 0 6 7 13 16 16 8 3 13 10 9 15 -3 5 -1 12 5 16 6 4 7 12 4 18 -5 8 -4 9 4 2
5 -5 24 -43 41 -82z m321 -337 c0 -3 -4 -8 -10 -11 -5 -3 -10 -1 -10 4 0 6 5
11 10 11 6 0 10 -2 10 -4z"/>
</g>
</svg>
