<svg width="41" height="42" viewBox="0 0 41 42" fill="none" xmlns="http://www.w3.org/2000/svg">
<path d="M20.5 2.95996C10.5465 2.95996 2.45999 11.0464 2.45999 21C2.45999 30.0357 9.12457 37.5134 17.8046 38.8173L18.7463 38.9599V24.7444H14.4845V21.8584H18.7463V18.0259C18.7463 15.6658 19.3126 14.1115 20.2501 13.1363C21.1877 12.1611 22.573 11.6693 24.5007 11.6693C26.0421 11.6693 26.6418 11.7627 27.2121 11.8326V14.1949H25.2054C24.0667 14.1949 23.1326 14.8302 22.6477 15.6764C22.1628 16.5225 22.0119 17.5328 22.0119 18.5624V21.8568H27.0328L26.5859 24.7428H22.0119V38.9823L22.9424 38.8558C31.7458 37.6618 38.54 30.124 38.54 21C38.54 11.0464 30.4535 2.95996 20.5 2.95996ZM20.5 4.59996C29.5672 4.59996 36.9 11.9328 36.9 21C36.9 28.9784 31.1893 35.54 23.6519 37.0172V26.3828H27.9921L28.945 20.2168H23.6519V18.5624C23.6519 17.7117 23.8075 16.9494 24.0699 16.4916C24.3322 16.0337 24.5851 15.8349 25.2054 15.8349H28.8521V10.348L28.141 10.2519C27.6492 10.1853 26.5263 10.0293 24.5007 10.0293C22.2842 10.0293 20.3816 10.6331 19.0682 11.9992C17.7548 13.3653 17.1063 15.3995 17.1063 18.0259V20.2184H12.8445V26.3844H17.1063V36.9659C9.68993 35.3949 4.09999 28.892 4.09999 21C4.09999 11.9328 11.4328 4.59996 20.5 4.59996Z" fill="#240035"/>
</svg>
