<svg width="41" height="42" viewBox="0 0 41 42" fill="none" xmlns="http://www.w3.org/2000/svg">
<path d="M13.12 2.95996C7.24263 2.95996 2.45999 7.7426 2.45999 13.62V28.38C2.45999 34.2573 7.24263 39.04 13.12 39.04H27.88C33.7574 39.04 38.54 34.2573 38.54 28.38V13.62C38.54 7.7426 33.7574 2.95996 27.88 2.95996H13.12ZM13.12 4.59996H27.88C32.8709 4.59996 36.9 8.62904 36.9 13.62V28.38C36.9 33.3709 32.8709 37.4 27.88 37.4H13.12C8.12908 37.4 4.09999 33.3709 4.09999 28.38V13.62C4.09999 8.62904 8.12908 4.59996 13.12 4.59996ZM30.34 9.51996C29.905 9.51996 29.4879 9.69275 29.1803 10.0003C28.8728 10.3079 28.7 10.725 28.7 11.16C28.7 11.5949 28.8728 12.0121 29.1803 12.3196C29.4879 12.6272 29.905 12.8 30.34 12.8C30.7749 12.8 31.1921 12.6272 31.4996 12.3196C31.8072 12.0121 31.98 11.5949 31.98 11.16C31.98 10.725 31.8072 10.3079 31.4996 10.0003C31.1921 9.69275 30.7749 9.51996 30.34 9.51996ZM20.5 11.98C15.5281 11.98 11.48 16.0281 11.48 21C11.48 25.9719 15.5281 30.02 20.5 30.02C25.4719 30.02 29.52 25.9719 29.52 21C29.52 16.0281 25.4719 11.98 20.5 11.98ZM20.5 13.62C24.5856 13.62 27.88 16.9144 27.88 21C27.88 25.0855 24.5856 28.38 20.5 28.38C16.4144 28.38 13.12 25.0855 13.12 21C13.12 16.9144 16.4144 13.62 20.5 13.62Z" fill="#240035"/>
</svg>
