<svg width="41" height="42" viewBox="0 0 41 42" fill="none" xmlns="http://www.w3.org/2000/svg">
<path d="M20.5 2.13989C10.0936 2.13989 1.64001 10.5935 1.64001 20.9999C1.64001 31.4063 10.0936 39.8599 20.5 39.8599C30.9064 39.8599 39.36 31.4063 39.36 20.9999C39.36 10.5935 30.9064 2.13989 20.5 2.13989ZM20.5 3.77989C30.0201 3.77989 37.72 11.4798 37.72 20.9999C37.72 30.52 30.0201 38.2199 20.5 38.2199C10.98 38.2199 3.28001 30.52 3.28001 20.9999C3.28001 11.4798 10.98 3.77989 20.5 3.77989ZM13.12 10.3399C11.7711 10.3399 10.66 11.451 10.66 12.7999C10.66 14.1488 11.7711 15.2599 13.12 15.2599C14.4689 15.2599 15.58 14.1488 15.58 12.7999C15.58 11.451 14.4689 10.3399 13.12 10.3399ZM13.12 11.9799C13.5826 11.9799 13.94 12.3373 13.94 12.7999C13.94 13.2625 13.5826 13.6199 13.12 13.6199C12.6574 13.6199 12.3 13.2625 12.3 12.7999C12.3 12.3373 12.6574 11.9799 13.12 11.9799ZM11.48 16.0799C11.2625 16.0799 11.054 16.1663 10.9002 16.3201C10.7464 16.4739 10.66 16.6824 10.66 16.8999V29.1999C10.66 29.4174 10.7464 29.6259 10.9002 29.7797C11.054 29.9335 11.2625 30.0199 11.48 30.0199H14.76C14.9775 30.0199 15.186 29.9335 15.3398 29.7797C15.4936 29.6259 15.58 29.4174 15.58 29.1999V16.8999C15.58 16.6824 15.4936 16.4739 15.3398 16.3201C15.186 16.1663 14.9775 16.0799 14.76 16.0799H11.48ZM18.04 16.0799C17.8225 16.0799 17.614 16.1663 17.4602 16.3201C17.3064 16.4739 17.22 16.6824 17.22 16.8999V29.1999C17.22 29.4174 17.3064 29.6259 17.4602 29.7797C17.614 29.9335 17.8225 30.0199 18.04 30.0199H21.32C21.5375 30.0199 21.746 29.9335 21.8998 29.7797C22.0536 29.6259 22.14 29.4174 22.14 29.1999V23.0499C22.14 21.9187 23.0588 20.9999 24.19 20.9999C25.3212 20.9999 26.24 21.9187 26.24 23.0499V25.0999V29.1999C26.24 29.4174 26.3264 29.6259 26.4802 29.7797C26.634 29.9335 26.8425 30.0199 27.06 30.0199H30.34C30.5575 30.0199 30.766 29.9335 30.9198 29.7797C31.0736 29.6259 31.16 29.4174 31.16 29.1999V22.2299C31.16 18.843 28.3969 16.0799 25.01 16.0799C23.9551 16.0799 23.009 16.4211 22.14 16.8919C22.1379 16.6758 22.0506 16.4693 21.897 16.3173C21.7435 16.1652 21.5361 16.0799 21.32 16.0799H18.04ZM12.3 17.7199H13.94V28.3799H12.3V17.7199ZM18.86 17.7199H20.5V18.3893C20.5 18.5502 20.5473 18.7074 20.6361 18.8416C20.7248 18.9757 20.851 19.0808 20.9989 19.1438C21.1469 19.2068 21.3102 19.2249 21.4683 19.1958C21.6265 19.1667 21.7727 19.0918 21.8886 18.9803C22.701 18.1998 23.7937 17.7199 25.01 17.7199C27.5107 17.7199 29.52 19.7292 29.52 22.2299V28.3799H27.88V25.0999V23.0499C27.88 21.0241 26.2158 19.3599 24.19 19.3599C22.1642 19.3599 20.5 21.0241 20.5 23.0499V28.3799H18.86V17.7199Z" fill="#240035"/>
</svg>
