<svg width="159" height="43" viewBox="0 0 159 43" fill="none" xmlns="http://www.w3.org/2000/svg">
<path d="M11.6944 0.790859H11.8607C12.5812 0.790859 13.177 1.15812 13.6481 1.89263C17.1675 9.02122 18.9503 12.6608 18.9965 12.8115C19.1259 13.2729 19.1905 13.5507 19.1905 13.6449C19.1905 14.4924 18.7887 15.1563 17.985 15.6366C17.6433 15.8061 17.3061 15.8908 16.9736 15.8908C16.253 15.8908 15.648 15.5565 15.1584 14.8879C15.103 14.8032 14.1192 12.8068 12.2071 8.8988C12.0778 8.76696 11.9346 8.70104 11.7776 8.70104C11.482 8.70104 11.2418 8.96471 11.0571 9.49206L3.96281 23.801C3.68569 24.2248 3.27925 24.5261 2.74348 24.705C2.66958 24.7239 2.60492 24.7333 2.5495 24.7333H1.81513C1.49183 24.7333 1.10848 24.5449 0.665086 24.1683C0.221695 23.7068 0 23.1701 0 22.558C0 22.1342 0.314069 21.3338 0.942206 20.1567C0.942206 20.1284 3.39009 15.1422 8.28587 5.19796C9.3574 2.99441 9.93473 1.83143 10.0179 1.70901C10.5074 1.09691 11.0663 0.790859 11.6944 0.790859ZM21.3105 20.4251H21.4906C22.1926 20.4251 22.7792 20.7829 23.2503 21.4986C23.4535 21.8847 23.5551 22.2472 23.5551 22.5862C23.5551 23.4055 23.1672 24.0553 22.3912 24.5355C22.1141 24.6674 21.9063 24.7333 21.7677 24.7333H21.0472C20.7147 24.7333 20.3175 24.5261 19.8556 24.1118C19.4584 23.6503 19.2598 23.1465 19.2598 22.6004C19.2598 21.9035 19.5508 21.315 20.1327 20.8347C20.5299 20.5616 20.9225 20.4251 21.3105 20.4251Z" fill="white"/>
<path d="M33.8091 0.578979C34.585 0.578979 35.1762 0.974489 35.5827 1.76551C35.6935 2.01976 35.7489 2.25518 35.7489 2.47177V22.8546C35.7489 23.5421 35.3933 24.1118 34.682 24.5638C34.4234 24.6768 34.2433 24.7333 34.1417 24.7333H33.4489C33.1348 24.7145 32.7699 24.5261 32.3542 24.1683C32.0032 23.7351 31.8277 23.3066 31.8277 22.8829C31.8185 22.8829 31.8139 22.7981 31.8139 22.6286V2.68365C31.8139 1.68546 32.2988 1.00745 33.2687 0.649606C33.4535 0.602522 33.6336 0.578979 33.8091 0.578979ZM41.5962 20.7499H45.5036C46.5289 20.7499 47.2171 21.2302 47.5681 22.1907C47.6143 22.3885 47.6374 22.5533 47.6374 22.6851V22.8687C47.6374 23.5279 47.291 24.0882 46.5982 24.5497C46.3211 24.6721 46.1271 24.7333 46.0162 24.7333H41.1251C40.774 24.7333 40.3815 24.5073 39.9473 24.0553C39.6425 23.6692 39.4901 23.269 39.4901 22.8546V22.6992C39.4901 22.0024 39.8365 21.4327 40.5293 20.9901C40.8341 20.83 41.1897 20.7499 41.5962 20.7499Z" fill="white"/>
<path d="M65.6091 0.578979H65.7754C66.7638 0.578979 67.7476 0.852069 68.7267 1.39825C69.2163 1.83143 69.4611 2.3211 69.4611 2.86728V2.98028C69.4611 3.63947 69.1332 4.18094 68.4773 4.6047C68.1909 4.73653 67.9184 4.80245 67.6598 4.80245H67.5905C67.3503 4.80245 66.9208 4.68474 66.3019 4.44932C66.0617 4.3834 65.8123 4.35044 65.5537 4.35044C64.8424 4.35044 64.1773 4.6612 63.5584 5.28271C63.0873 5.92306 62.8518 6.56812 62.8518 7.21788C62.8518 7.97123 63.1243 8.64925 63.6693 9.25193C63.891 9.59094 64.0018 9.9582 64.0018 10.3537C64.0018 11.0788 63.6462 11.6438 62.9349 12.0487C62.6763 12.1617 62.4453 12.2182 62.2421 12.2182H62.062C61.36 12.2182 60.7364 11.7427 60.1914 10.7916C59.4986 9.64273 59.1522 8.44679 59.1522 7.20376C59.1522 5.67822 59.688 4.23273 60.7595 2.86728C61.1937 2.3776 61.577 2.02447 61.9096 1.80788C63.1566 0.988614 64.3898 0.578979 65.6091 0.578979ZM66.1772 10.8057C66.9439 10.8057 67.5166 11.2059 67.8953 12.0064C67.9692 12.2418 68.0062 12.4537 68.0062 12.642V12.7268C68.0062 13.4048 67.6783 13.9462 67.0224 14.3512C66.7453 14.4924 66.4913 14.5631 66.2603 14.5631H66.0802C65.489 14.5631 64.9856 14.2476 64.5699 13.6167C64.4129 13.2965 64.3344 13.0093 64.3344 12.755V12.642C64.3344 12.0487 64.5976 11.5496 65.1242 11.1447C65.4382 10.9187 65.7892 10.8057 66.1772 10.8057ZM70.1677 13.1505H70.2231C70.8882 13.1505 71.4471 13.5037 71.8997 14.2099C72.7773 15.4624 73.216 16.7996 73.216 18.2215C73.216 19.7188 72.6895 21.136 71.6365 22.4732C70.9899 23.1795 70.4633 23.6268 70.0569 23.8151C69.4472 24.1541 69.0315 24.3472 68.8098 24.3943C68.154 24.6203 67.6367 24.7333 67.258 24.7333H66.0941C65.586 24.7333 64.8794 24.5308 63.9741 24.1259L63.503 23.7869C63.0966 23.3914 62.8933 22.9205 62.8933 22.3744C62.8933 21.6304 63.2675 21.0607 64.0157 20.6652C64.2743 20.5616 64.5191 20.5098 64.75 20.5098C65.0456 20.5098 65.4521 20.6322 65.9694 20.8771C66.2927 20.9618 66.579 21.0042 66.8284 21.0042C67.7984 21.0042 68.5882 20.4957 69.1978 19.4787C69.401 19.0643 69.5026 18.65 69.5026 18.2356C69.5026 17.454 69.2163 16.7336 68.6436 16.0745C68.4404 15.7355 68.3387 15.3776 68.3387 15.0009C68.3387 14.3606 68.6436 13.8332 69.2532 13.4189C69.5488 13.24 69.8537 13.1505 70.1677 13.1505Z" fill="white"/>
<path d="M86.9894 0.578979H98.573L98.6284 0.60723H98.67C99.3628 0.60723 99.9263 0.96978 100.36 1.69488C100.508 1.99622 100.582 2.30698 100.582 2.62715C100.582 3.40875 100.203 4.01143 99.4459 4.43519C99.1873 4.55761 98.9286 4.61882 98.67 4.61882H86.8647C86.3105 4.61882 85.8209 4.35986 85.396 3.84193C85.1189 3.46525 84.9803 3.07916 84.9803 2.68365V2.51415C84.9803 1.89263 85.2851 1.36058 85.8948 0.917987C86.2273 0.710816 86.5553 0.60723 86.8786 0.60723H86.934L86.9894 0.578979ZM86.9617 10.6786L92.9336 10.7068C93.3308 10.7068 93.7558 10.914 94.2084 11.3284C94.5686 11.7521 94.7488 12.2135 94.7488 12.7126C94.7488 13.4095 94.4301 13.9792 93.7927 14.4218C93.4786 14.6101 93.1738 14.7043 92.8782 14.7043H86.837C86.2458 14.7043 85.7331 14.403 85.299 13.8003C85.0865 13.4613 84.9803 13.1223 84.9803 12.7833V12.6138C84.9803 11.9734 85.3082 11.4225 85.9641 10.9611C86.2966 10.7916 86.6107 10.7068 86.9063 10.7068H86.934C86.9525 10.7068 86.9617 10.6974 86.9617 10.6786ZM98.5592 10.7068H98.6561C99.4044 10.7068 99.9909 11.1023 100.416 11.8934C100.527 12.1759 100.582 12.449 100.582 12.7126C100.582 13.5037 100.199 14.111 99.4321 14.5348C99.155 14.6478 98.9102 14.7043 98.6977 14.7043H98.5037C97.8756 14.7043 97.3398 14.37 96.8964 13.7014C96.7209 13.3624 96.6332 13.0281 96.6332 12.6985C96.6332 11.9263 97.0119 11.3236 97.7694 10.8905C98.0557 10.768 98.319 10.7068 98.5592 10.7068ZM86.9894 20.7358H98.573C98.573 20.7547 98.7162 20.7782 99.0025 20.8064C99.4829 20.9289 99.8478 21.1502 100.097 21.4703C100.42 21.8564 100.582 22.299 100.582 22.7981C100.582 23.5609 100.203 24.1636 99.4459 24.6062C99.215 24.6909 99.058 24.7333 98.9748 24.7333H86.5876C86.2643 24.7333 85.8763 24.512 85.4237 24.0694C85.1281 23.6645 84.9803 23.2548 84.9803 22.8405V22.7134C84.9803 22.0165 85.3267 21.4468 86.0195 21.0042C86.2227 20.8818 86.5368 20.797 86.9617 20.7499C86.9617 20.7405 86.9709 20.7358 86.9894 20.7358Z" fill="white"/>
<path d="M121.006 0.578979H121.2C122.013 0.578979 122.715 1.08278 123.306 2.09039C124.295 3.58767 124.789 5.2215 124.789 6.99188V7.04838C124.789 9.22368 124.059 11.1777 122.6 12.9104C121.87 13.6637 121.367 14.1157 121.09 14.2664C120.646 14.5772 120.221 14.8267 119.815 15.0151V15.0433C122.651 18.7441 124.198 20.7782 124.457 21.1455C124.66 21.541 124.761 21.9035 124.761 22.2331V22.4732C124.761 23.2548 124.364 23.9187 123.57 24.4649C123.209 24.6438 122.946 24.7333 122.78 24.7333H121.99C121.574 24.6956 121.136 24.4649 120.674 24.0411C116.471 18.5511 114.328 15.7355 114.245 15.5942C114.078 15.2081 113.995 14.822 113.995 14.4359V14.2382C113.995 13.3247 114.406 12.5243 115.228 11.8369C115.764 11.4696 116.268 11.286 116.739 11.286C117.164 11.2012 117.529 11.0929 117.833 10.9611C118.813 10.4808 119.528 9.74632 119.981 8.75754C120.212 8.16428 120.327 7.64164 120.327 7.18963V7.11901C120.327 7.08134 120.332 7.05309 120.341 7.03425L120.327 6.93538V6.86475C120.327 6.07373 120.06 5.28271 119.524 4.49169C119.533 4.46344 119.538 4.44461 119.538 4.43519C119.104 4.00202 118.886 3.47467 118.886 2.85316V2.81078C118.886 2.01976 119.242 1.38412 119.953 0.903862C120.304 0.687274 120.655 0.578979 121.006 0.578979Z" fill="white"/>
<path d="M147.306 0.790859H147.139C146.419 0.790859 145.823 1.15812 145.352 1.89263C141.832 9.02122 140.05 12.6608 140.003 12.8115C139.874 13.2729 139.809 13.5507 139.809 13.6449C139.809 14.4924 140.211 15.1563 141.015 15.6366C141.357 15.8061 141.694 15.8908 142.026 15.8908C142.747 15.8908 143.352 15.5565 143.842 14.8879C143.897 14.8032 144.881 12.8068 146.793 8.8988C146.922 8.76696 147.065 8.70104 147.222 8.70104C147.518 8.70104 147.758 8.96471 147.943 9.49206L155.037 23.801C155.314 24.2248 155.721 24.5261 156.257 24.705C156.33 24.7239 156.395 24.7333 156.451 24.7333H157.185C157.508 24.7333 157.892 24.5449 158.335 24.1683C158.778 23.7068 159 23.1701 159 22.558C159 22.1342 158.686 21.3338 158.058 20.1567C158.058 20.1284 155.61 15.1422 150.714 5.19796C149.643 2.99441 149.065 1.83143 148.982 1.70901C148.493 1.09691 147.934 0.790859 147.306 0.790859ZM137.69 20.4251H137.509C136.807 20.4251 136.221 20.7829 135.75 21.4986C135.546 21.8847 135.445 22.2472 135.445 22.5862C135.445 23.4055 135.833 24.0553 136.609 24.5355C136.886 24.6674 137.094 24.7333 137.232 24.7333H137.953C138.285 24.7333 138.683 24.5261 139.144 24.1118C139.542 23.6503 139.74 23.1465 139.74 22.6004C139.74 21.9035 139.449 21.315 138.867 20.8347C138.47 20.5616 138.077 20.4251 137.69 20.4251Z" fill="white"/>
<path d="M37.4094 39.5738C36.7129 39.5738 36.1341 39.3623 35.6729 38.9395C35.2211 38.5166 34.9952 37.934 34.9952 37.1916V30.5949H35.447V33.1462H37.3953V33.5408H35.447V37.1916C35.447 37.8118 35.6305 38.3005 35.9976 38.6575C36.3741 39.0052 36.8447 39.1791 37.4094 39.1791V39.5738Z" fill="white"/>
<path d="M43.1711 39.2637C43.6605 39.2637 44.1264 39.1368 44.5687 38.8831C45.0111 38.6293 45.3781 38.2817 45.6699 37.84V38.5589C45.3217 38.9442 44.9405 39.2261 44.5264 39.4046C44.1122 39.5738 43.6417 39.6583 43.1146 39.6583C42.5311 39.6583 41.9805 39.5033 41.4628 39.1932C40.9546 38.8831 40.5452 38.4696 40.2346 37.9528C39.9334 37.4359 39.7828 36.8862 39.7828 36.3036C39.7828 35.674 39.9334 35.1101 40.2346 34.6121C40.5358 34.1047 40.9452 33.71 41.4628 33.4281C41.9899 33.1462 42.5734 33.0052 43.2134 33.0052C44.1923 33.0052 45.0252 33.3905 45.7123 34.161L41.2793 38.5307C41.5899 38.7844 41.8911 38.9723 42.1828 39.0945C42.4746 39.2073 42.804 39.2637 43.1711 39.2637ZM40.2346 36.2613C40.2346 37.0412 40.4934 37.7084 41.0111 38.2629L45.1476 34.161C44.837 33.8885 44.5358 33.6959 44.244 33.5831C43.9522 33.461 43.604 33.3999 43.1993 33.3999C42.6252 33.3999 42.1122 33.5267 41.6605 33.7805C41.2181 34.0248 40.8699 34.3631 40.6158 34.7953C40.3616 35.2276 40.2346 35.7163 40.2346 36.2613Z" fill="white"/>
<path d="M51.5997 39.6724C50.9879 39.6724 50.4232 39.5268 49.9056 39.2355C49.3973 38.9442 48.9926 38.5448 48.6914 38.0373C48.3903 37.5299 48.2397 36.9567 48.2397 36.3177C48.2397 35.7257 48.3903 35.1806 48.6914 34.6826C48.9926 34.1751 49.402 33.7711 49.9197 33.4704C50.4467 33.1697 51.0256 33.0193 51.6562 33.0193C52.1832 33.0193 52.635 33.1039 53.0115 33.273C53.3879 33.4422 53.755 33.7053 54.1126 34.0624V34.8235C53.8021 34.3631 53.4538 34.0154 53.0679 33.7805C52.6915 33.5361 52.2209 33.414 51.6562 33.414C51.1385 33.414 50.6491 33.5502 50.1879 33.8228C49.7361 34.0859 49.3738 34.443 49.1008 34.894C48.8279 35.3451 48.6914 35.829 48.6914 36.3459C48.6914 36.9097 48.8232 37.4171 49.0867 37.8682C49.3503 38.3098 49.7032 38.6575 50.1456 38.9113C50.5973 39.1556 51.082 39.2777 51.5997 39.2777C52.6538 39.2777 53.4915 38.8032 54.1126 37.8541V38.6153C53.7738 38.9723 53.3974 39.2402 52.9832 39.4187C52.5785 39.5879 52.1173 39.6724 51.5997 39.6724Z" fill="white"/>
<path d="M56.8447 28.9175H57.2964V34.4571C57.4941 34.0342 57.8282 33.6865 58.2988 33.414C58.7788 33.1321 59.2635 32.9911 59.7529 32.9911C60.647 32.9911 61.3341 33.2354 61.8141 33.7241C62.3035 34.2127 62.5482 34.9034 62.5482 35.7961V39.4892H62.0965V35.7961C62.0965 35.0256 61.8894 34.4336 61.4753 34.0201C61.0706 33.5972 60.4964 33.3858 59.7529 33.3858C59.3011 33.3858 58.887 33.4939 58.5105 33.71C58.1341 33.9167 57.8376 34.208 57.6211 34.5839C57.4047 34.9504 57.2964 35.3545 57.2964 35.7961V39.4892H56.8447V28.9175Z" fill="white"/>
<path d="M65.8133 33.1462H66.265V34.5557C66.4721 34.0859 66.8251 33.71 67.3239 33.4281C67.8227 33.1368 68.3733 32.9911 68.9757 32.9911C69.7568 32.9911 70.3733 33.2401 70.8251 33.7382C71.2863 34.2268 71.5168 34.9128 71.5168 35.7961V39.4892H71.0651V35.7961C71.0651 35.035 70.8768 34.443 70.5004 34.0201C70.1333 33.5972 69.6157 33.3858 68.9474 33.3858C68.458 33.3858 68.0062 33.4986 67.5921 33.7241C67.1874 33.9402 66.8627 34.2409 66.618 34.6262C66.3827 35.0115 66.265 35.4484 66.265 35.9371V39.4892H65.8133V33.1462Z" fill="white"/>
<path d="M77.8031 39.7147C77.1631 39.7147 76.5843 39.5597 76.0666 39.2496C75.549 38.9301 75.1443 38.5119 74.8525 37.995C74.5607 37.4688 74.4148 36.9003 74.4148 36.2895C74.4148 35.6881 74.5607 35.1289 74.8525 34.6121C75.1537 34.0953 75.5584 33.6865 76.0666 33.3858C76.5843 33.0757 77.1584 32.9206 77.789 32.9206C78.4102 32.9206 78.9749 33.0757 79.4831 33.3858C80.0008 33.6865 80.4055 34.0953 80.6972 34.6121C80.989 35.1289 81.1349 35.6881 81.1349 36.2895C81.1349 36.9191 80.9937 37.497 80.7114 38.0232C80.429 38.5401 80.0337 38.9535 79.5255 39.2637C79.0266 39.5644 78.4525 39.7147 77.8031 39.7147ZM77.8031 39.32C78.3396 39.32 78.829 39.1838 79.2713 38.9113C79.7137 38.6387 80.0572 38.277 80.3019 37.8259C80.5561 37.3654 80.6831 36.8627 80.6831 36.3177C80.6831 35.782 80.5561 35.284 80.3019 34.8235C80.0478 34.3631 79.6996 33.9966 79.2572 33.7241C78.8149 33.4516 78.3255 33.3153 77.789 33.3153C77.2525 33.3153 76.7584 33.4563 76.3066 33.7382C75.8643 34.0107 75.5113 34.3772 75.2478 34.8376C74.9937 35.2981 74.8666 35.7961 74.8666 36.3318C74.8666 36.8674 74.9937 37.3654 75.2478 37.8259C75.5113 38.277 75.8643 38.6387 76.3066 38.9113C76.7584 39.1838 77.2572 39.32 77.8031 39.32Z" fill="white"/>
<path d="M86.4404 39.616C85.9981 39.616 85.5933 39.5174 85.2263 39.32C84.8592 39.1133 84.5675 38.8267 84.351 38.4602C84.1345 38.0937 84.0263 37.6849 84.0263 37.2339V28.9175H84.478V37.2339C84.478 37.6098 84.5627 37.9481 84.7322 38.2488C84.911 38.5495 85.151 38.7891 85.4522 38.9676C85.7533 39.1368 86.0828 39.2214 86.4404 39.2214V39.616Z" fill="white"/>
<path d="M91.9765 39.7147C91.3365 39.7147 90.7577 39.5597 90.2401 39.2496C89.7224 38.9301 89.3177 38.5119 89.0259 37.995C88.7342 37.4688 88.5883 36.9003 88.5883 36.2895C88.5883 35.6881 88.7342 35.1289 89.0259 34.6121C89.3271 34.0953 89.7318 33.6865 90.2401 33.3858C90.7577 33.0757 91.3318 32.9206 91.9624 32.9206C92.5836 32.9206 93.1483 33.0757 93.6566 33.3858C94.1742 33.6865 94.5789 34.0953 94.8707 34.6121C95.1625 35.1289 95.3083 35.6881 95.3083 36.2895C95.3083 36.9191 95.1672 37.497 94.8848 38.0232C94.6025 38.5401 94.2072 38.9535 93.6989 39.2637C93.2001 39.5644 92.626 39.7147 91.9765 39.7147ZM91.9765 39.32C92.513 39.32 93.0024 39.1838 93.4448 38.9113C93.8871 38.6387 94.2307 38.277 94.4754 37.8259C94.7295 37.3654 94.8566 36.8627 94.8566 36.3177C94.8566 35.782 94.7295 35.284 94.4754 34.8235C94.2213 34.3631 93.873 33.9966 93.4307 33.7241C92.9883 33.4516 92.4989 33.3153 91.9624 33.3153C91.426 33.3153 90.9318 33.4563 90.4801 33.7382C90.0377 34.0107 89.6848 34.3772 89.4212 34.8376C89.1671 35.2981 89.0401 35.7961 89.0401 36.3318C89.0401 36.8674 89.1671 37.3654 89.4212 37.8259C89.6848 38.277 90.0377 38.6387 90.4801 38.9113C90.9318 39.1838 91.4307 39.32 91.9765 39.32Z" fill="white"/>
<path d="M101.263 42.4211C100.727 42.4211 100.204 42.2989 99.6962 42.0546C99.188 41.8103 98.7927 41.4908 98.5103 41.0961V40.4477C98.755 40.8987 99.1362 41.2746 99.6538 41.5753C100.181 41.876 100.717 42.0264 101.263 42.0264C102.167 42.0264 102.863 41.7586 103.353 41.2229C103.842 40.6967 104.087 39.9214 104.087 38.8972V37.9528C103.833 38.4602 103.433 38.8737 102.887 39.1932C102.35 39.5033 101.786 39.6583 101.193 39.6583C100.59 39.6583 100.03 39.508 99.5127 39.2073C98.995 38.9066 98.5856 38.5025 98.2844 37.995C97.9832 37.4782 97.8327 36.9238 97.8327 36.3318C97.8327 35.7398 97.9832 35.19 98.2844 34.6826C98.5856 34.1657 98.995 33.757 99.5127 33.4563C100.03 33.1556 100.59 33.0052 101.193 33.0052C101.814 33.0052 102.388 33.1603 102.915 33.4704C103.442 33.7805 103.833 34.1986 104.087 34.7249V33.1462H104.539V38.8972C104.539 40.053 104.256 40.9269 103.692 41.5189C103.136 42.1204 102.327 42.4211 101.263 42.4211ZM101.221 39.2637C101.739 39.2637 102.219 39.1321 102.661 38.869C103.103 38.5965 103.452 38.2394 103.706 37.7977C103.969 37.3467 104.101 36.858 104.101 36.3318C104.101 35.8055 103.969 35.3216 103.706 34.8799C103.452 34.4289 103.103 34.0718 102.661 33.8087C102.219 33.5361 101.739 33.3999 101.221 33.3999C100.694 33.3999 100.204 33.5361 99.7527 33.8087C99.3103 34.0718 98.9527 34.4289 98.6797 34.8799C98.4162 35.3216 98.2844 35.8055 98.2844 36.3318C98.2844 36.858 98.4162 37.3467 98.6797 37.7977C98.9527 38.2394 99.3103 38.5965 99.7527 38.869C100.204 39.1321 100.694 39.2637 101.221 39.2637Z" fill="white"/>
<path d="M108.353 31.6943C108.221 31.6943 108.104 31.6473 108 31.5534C107.906 31.4594 107.859 31.3419 107.859 31.201C107.859 31.0694 107.906 30.9566 108 30.8627C108.104 30.7687 108.221 30.7217 108.353 30.7217C108.485 30.7217 108.598 30.7687 108.692 30.8627C108.795 30.9566 108.847 31.0694 108.847 31.201C108.847 31.3419 108.795 31.4594 108.692 31.5534C108.598 31.6473 108.485 31.6943 108.353 31.6943ZM108.127 33.1462H108.579V39.4892H108.127V33.1462Z" fill="white"/>
<path d="M115.258 39.2637C115.748 39.2637 116.213 39.1368 116.656 38.8831C117.098 38.6293 117.465 38.2817 117.757 37.84V38.5589C117.409 38.9442 117.028 39.2261 116.613 39.4046C116.199 39.5738 115.729 39.6583 115.202 39.6583C114.618 39.6583 114.068 39.5033 113.55 39.1932C113.042 38.8831 112.632 38.4696 112.322 37.9528C112.02 37.4359 111.87 36.8862 111.87 36.3036C111.87 35.674 112.02 35.1101 112.322 34.6121C112.623 34.1047 113.032 33.71 113.55 33.4281C114.077 33.1462 114.66 33.0052 115.3 33.0052C116.279 33.0052 117.112 33.3905 117.799 34.161L113.366 38.5307C113.677 38.7844 113.978 38.9723 114.27 39.0945C114.562 39.2073 114.891 39.2637 115.258 39.2637ZM112.322 36.2613C112.322 37.0412 112.58 37.7084 113.098 38.2629L117.235 34.161C116.924 33.8885 116.623 33.6959 116.331 33.5831C116.039 33.461 115.691 33.3999 115.286 33.3999C114.712 33.3999 114.199 33.5267 113.748 33.7805C113.305 34.0248 112.957 34.3631 112.703 34.7953C112.449 35.2276 112.322 35.7163 112.322 36.2613Z" fill="white"/>
<path d="M122.233 39.6442C121.781 39.6442 121.381 39.5691 121.033 39.4187C120.684 39.259 120.435 39.0569 120.284 38.8126V38.0655C120.463 38.4696 120.708 38.7703 121.019 38.9676C121.329 39.1556 121.724 39.2496 122.204 39.2496C122.666 39.2496 123.037 39.1086 123.32 38.8267C123.602 38.5354 123.743 38.1642 123.743 37.7131C123.743 37.3279 123.663 37.0318 123.503 36.8251C123.343 36.609 123.084 36.3928 122.727 36.1767L122.19 35.8666C121.804 35.6317 121.513 35.4484 121.315 35.3169C121.127 35.1759 120.976 35.0209 120.863 34.8517C120.75 34.6732 120.694 34.4664 120.694 34.2315C120.694 33.8556 120.826 33.5549 121.089 33.3294C121.353 33.1039 121.696 32.9911 122.12 32.9911C122.637 32.9911 123.07 33.1086 123.419 33.3435V33.9637C123.127 33.5784 122.708 33.3858 122.162 33.3858C121.861 33.3858 121.616 33.461 121.428 33.6113C121.24 33.7617 121.146 33.9543 121.146 34.1892C121.146 34.396 121.202 34.5792 121.315 34.739C121.428 34.8893 121.583 35.0303 121.781 35.1618C121.988 35.2934 122.327 35.4907 122.797 35.7538C123.277 36.0264 123.63 36.3083 123.856 36.5996C124.082 36.8815 124.195 37.2527 124.195 37.7131C124.195 38.2958 124.002 38.7656 123.616 39.1227C123.24 39.4704 122.779 39.6442 122.233 39.6442Z" fill="white"/>
<circle cx="23.6788" cy="35.6693" r="3.70873" fill="white"/>
<circle cx="135.511" cy="35.6693" r="3.70873" fill="white"/>
</svg>
