<svg width="175" height="46" viewBox="0 0 175 46" fill="none" xmlns="http://www.w3.org/2000/svg">
<path d="M12.8565 0.232935H13.0393C13.8314 0.232935 14.4864 0.636688 15.0044 1.44419C18.8735 9.28115 20.8335 13.2824 20.8842 13.4481C21.0264 13.9554 21.0975 14.2608 21.0975 14.3643C21.0975 15.296 20.6557 16.0259 19.7722 16.5539C19.3965 16.7402 19.0258 16.8334 18.6602 16.8334C17.8681 16.8334 17.203 16.4659 16.6647 15.7309C16.6038 15.6377 15.5223 13.4429 13.4201 9.14657C13.278 9.00163 13.1206 8.92916 12.9479 8.92916C12.623 8.92916 12.3589 9.21903 12.1558 9.79878L4.3566 25.5296C4.05194 25.9955 3.60511 26.3268 3.0161 26.5235C2.93486 26.5442 2.86378 26.5545 2.80284 26.5545H1.9955C1.64007 26.5545 1.21863 26.3475 0.731177 25.9334C0.243726 25.4261 0 24.836 0 24.1631C0 23.6972 0.345278 22.8172 1.03583 21.5232C1.03583 21.4921 3.72697 16.0104 9.10924 5.07797C10.2873 2.65545 10.922 1.3769 11.0134 1.24232C11.5516 0.569396 12.166 0.232935 12.8565 0.232935ZM23.4281 21.8182H23.6262C24.3979 21.8182 25.0428 22.2116 25.5607 22.9984C25.7841 23.4229 25.8958 23.8214 25.8958 24.1941C25.8958 25.0948 25.4693 25.8092 24.6163 26.3371C24.3116 26.4821 24.0831 26.5545 23.9308 26.5545H23.1387C22.7731 26.5545 22.3364 26.3268 21.8287 25.8713C21.392 25.364 21.1737 24.8101 21.1737 24.2097C21.1737 23.4436 21.4936 22.7965 22.1333 22.2685C22.57 21.9683 23.0016 21.8182 23.4281 21.8182Z" fill="#CB93FF"/>
<path d="M37.1688 0C38.0218 0 38.6717 0.434811 39.1186 1.30443C39.2404 1.58396 39.3014 1.84277 39.3014 2.08088V24.4892C39.3014 25.2449 38.9104 25.8713 38.1284 26.3682C37.8441 26.4924 37.6461 26.5545 37.5344 26.5545H36.7727C36.4274 26.5338 36.0263 26.3268 35.5693 25.9334C35.1834 25.4572 34.9905 24.9861 34.9905 24.5203C34.9803 24.5203 34.9752 24.4271 34.9752 24.2407V2.31382C34.9752 1.21644 35.5084 0.471046 36.5747 0.0776449C36.7778 0.0258816 36.9758 0 37.1688 0ZM45.7296 22.1754H50.0253C51.1525 22.1754 51.9091 22.7034 52.295 23.7593C52.3458 23.9767 52.3712 24.1579 52.3712 24.3028V24.5047C52.3712 25.2294 51.9903 25.8454 51.2287 26.3527C50.924 26.4873 50.7108 26.5545 50.5889 26.5545H45.2117C44.8258 26.5545 44.3942 26.3061 43.9169 25.8092C43.5818 25.3847 43.4142 24.9447 43.4142 24.4892V24.3184C43.4142 23.5523 43.7951 22.9259 44.5567 22.4394C44.8918 22.2634 45.2828 22.1754 45.7296 22.1754Z" fill="#CB93FF"/>
<path d="M72.1288 0H72.3116C73.3982 0 74.4797 0.300227 75.5562 0.90068C76.0944 1.3769 76.3635 1.91524 76.3635 2.51569V2.63993C76.3635 3.36461 76.003 3.95989 75.282 4.42576C74.9672 4.57069 74.6676 4.64316 74.3832 4.64316H74.3071C74.043 4.64316 73.5708 4.51375 72.8904 4.25494C72.6264 4.18247 72.3522 4.14624 72.0678 4.14624C71.2859 4.14624 70.5547 4.48787 69.8743 5.17115C69.3564 5.87513 69.0974 6.58428 69.0974 7.29862C69.0974 8.12683 69.397 8.87222 69.9962 9.53479C70.2399 9.90749 70.3618 10.3112 70.3618 10.7461C70.3618 11.5432 69.9708 12.1644 69.1888 12.6095C68.9045 12.7338 68.6506 12.7959 68.4272 12.7959H68.2292C67.4574 12.7959 66.7719 12.2731 66.1727 11.2274C65.4111 9.96443 65.0303 8.64964 65.0303 7.28309C65.0303 5.60596 65.6193 4.01683 66.7973 2.51569C67.2746 1.97736 67.696 1.58913 68.0616 1.35102C69.4326 0.45034 70.7883 0 72.1288 0ZM72.7533 11.243C73.5962 11.243 74.2258 11.683 74.6422 12.5629C74.7234 12.8218 74.7641 13.0547 74.7641 13.2617V13.3549C74.7641 14.1003 74.4035 14.6956 73.6825 15.1407C73.3779 15.296 73.0986 15.3737 72.8447 15.3737H72.6467C71.9967 15.3737 71.4433 15.0269 70.9863 14.3332C70.8137 13.9813 70.7273 13.6655 70.7273 13.386V13.2617C70.7273 12.6095 71.0168 12.0608 71.5956 11.6157C71.9409 11.3672 72.3268 11.243 72.7533 11.243ZM77.1404 13.8208H77.2013C77.9325 13.8208 78.5469 14.209 79.0445 14.9855C80.0092 16.3624 80.4916 17.8324 80.4916 19.3957C80.4916 21.0418 79.9128 22.5998 78.7551 24.0699C78.0442 24.8464 77.4653 25.3381 77.0185 25.5452C76.3483 25.9179 75.8913 26.1301 75.6476 26.1819C74.9265 26.4303 74.3578 26.5545 73.9415 26.5545H72.6619C72.1034 26.5545 71.3265 26.332 70.3313 25.8868L69.8134 25.5141C69.3665 25.0793 69.1431 24.5617 69.1431 23.9612C69.1431 23.1433 69.5544 22.517 70.377 22.0822C70.6613 21.9683 70.9305 21.9114 71.1843 21.9114C71.5093 21.9114 71.9561 22.046 72.5248 22.3151C72.8803 22.4083 73.1951 22.4549 73.4693 22.4549C74.5356 22.4549 75.4038 21.8959 76.0741 20.7778C76.2975 20.3223 76.4092 19.8667 76.4092 19.4112C76.4092 18.5519 76.0944 17.76 75.4648 17.0353C75.2413 16.6626 75.1296 16.2692 75.1296 15.8551C75.1296 15.1511 75.4648 14.5714 76.135 14.1158C76.46 13.9191 76.7951 13.8208 77.1404 13.8208Z" fill="#CB93FF"/>
<path d="M95.6337 0H108.368L108.429 0.0310579H108.475C109.237 0.0310579 109.856 0.429635 110.333 1.22679C110.496 1.55807 110.577 1.89971 110.577 2.2517C110.577 3.11097 110.161 3.77354 109.328 4.23941C109.044 4.37399 108.759 4.44129 108.475 4.44129H95.4966C94.8873 4.44129 94.349 4.15659 93.8819 3.58719C93.5772 3.17309 93.4249 2.74863 93.4249 2.31382V2.12747C93.4249 1.44419 93.76 0.85927 94.4303 0.372695C94.7959 0.144937 95.1564 0.0310579 95.5118 0.0310579H95.5727L95.6337 0ZM95.6032 11.1032L102.169 11.1343C102.605 11.1343 103.072 11.362 103.57 11.8175C103.966 12.2834 104.164 12.7907 104.164 13.3394C104.164 14.1055 103.814 14.7318 103.113 15.2184C102.768 15.4254 102.433 15.529 102.108 15.529H95.4661C94.8162 15.529 94.2525 15.1977 93.7753 14.5351C93.5417 14.1624 93.4249 13.7897 93.4249 13.417V13.2307C93.4249 12.5267 93.7854 11.9211 94.5064 11.4138C94.872 11.2274 95.2173 11.1343 95.5423 11.1343H95.5727C95.593 11.1343 95.6032 11.1239 95.6032 11.1032ZM108.353 11.1343H108.46C109.282 11.1343 109.927 11.5691 110.394 12.4387C110.516 12.7493 110.577 13.0495 110.577 13.3394C110.577 14.209 110.156 14.8768 109.313 15.3426C109.008 15.4669 108.739 15.529 108.505 15.529H108.292C107.602 15.529 107.013 15.1615 106.525 14.4264C106.332 14.0537 106.236 13.6862 106.236 13.3239C106.236 12.4749 106.652 11.8124 107.485 11.3362C107.8 11.2016 108.089 11.1343 108.353 11.1343ZM95.6337 22.1598H108.368C108.368 22.1806 108.526 22.2064 108.841 22.2375C109.369 22.3721 109.77 22.6154 110.044 22.9674C110.399 23.3918 110.577 23.8784 110.577 24.4271C110.577 25.2656 110.161 25.9282 109.328 26.4148C109.074 26.508 108.901 26.5545 108.81 26.5545H95.1919C94.8365 26.5545 94.41 26.3113 93.9124 25.8247C93.5874 25.3795 93.4249 24.9292 93.4249 24.4737V24.3339C93.4249 23.5678 93.8057 22.9415 94.5674 22.4549C94.7908 22.3203 95.1361 22.2271 95.6032 22.1754C95.6032 22.165 95.6133 22.1598 95.6337 22.1598Z" fill="#CB93FF"/>
<path d="M133.031 0H133.244C134.138 0 134.91 0.553867 135.56 1.6616C136.646 3.30767 137.189 5.10386 137.189 7.05015V7.11227C137.189 9.50373 136.387 11.6519 134.783 13.5568C133.98 14.385 133.427 14.8819 133.122 15.0476C132.635 15.3892 132.168 15.6636 131.721 15.8706V15.9017C134.839 19.9703 136.54 22.2064 136.824 22.6102C137.047 23.045 137.159 23.4436 137.159 23.8059V24.0699C137.159 24.9292 136.722 25.659 135.849 26.2595C135.453 26.4562 135.164 26.5545 134.981 26.5545H134.112C133.655 26.5131 133.173 26.2595 132.665 25.7936C128.045 19.758 125.689 16.6626 125.597 16.5073C125.414 16.0828 125.323 15.6584 125.323 15.2339V15.0165C125.323 14.0123 125.775 13.1323 126.679 12.3766C127.268 11.9728 127.821 11.771 128.339 11.771C128.806 11.6778 129.207 11.5587 129.543 11.4138C130.619 10.8858 131.406 10.0783 131.904 8.99128C132.158 8.33906 132.285 7.76449 132.285 7.26756V7.18991C132.285 7.1485 132.29 7.11745 132.3 7.09674L132.285 6.98804V6.91039C132.285 6.04077 131.99 5.17115 131.401 4.30153C131.411 4.27047 131.416 4.24976 131.416 4.23941C130.939 3.76319 130.7 3.18344 130.7 2.50016V2.45358C130.7 1.58396 131.091 0.885152 131.873 0.357166C132.259 0.119055 132.645 0 133.031 0Z" fill="#CB93FF"/>
<path d="M161.943 0.232935H161.761C160.969 0.232935 160.314 0.636688 159.796 1.44419C155.927 9.28115 153.967 13.2824 153.916 13.4481C153.774 13.9554 153.702 14.2608 153.702 14.3643C153.702 15.296 154.144 16.0259 155.028 16.5539C155.404 16.7402 155.774 16.8334 156.14 16.8334C156.932 16.8334 157.597 16.4659 158.135 15.7309C158.196 15.6377 159.278 13.4429 161.38 9.14657C161.522 9.00163 161.679 8.92916 161.852 8.92916C162.177 8.92916 162.441 9.21903 162.644 9.79878L170.443 25.5296C170.748 25.9955 171.195 26.3268 171.784 26.5235C171.865 26.5442 171.936 26.5545 171.997 26.5545H172.805C173.16 26.5545 173.581 26.3475 174.069 25.9334C174.556 25.4261 174.8 24.836 174.8 24.1631C174.8 23.6972 174.455 22.8172 173.764 21.5232C173.764 21.4921 171.073 16.0104 165.691 5.07797C164.513 2.65545 163.878 1.3769 163.787 1.24232C163.248 0.569396 162.634 0.232935 161.943 0.232935ZM151.372 21.8182H151.174C150.402 21.8182 149.757 22.2116 149.239 22.9984C149.016 23.4229 148.904 23.8214 148.904 24.1941C148.904 25.0948 149.331 25.8092 150.184 26.3371C150.488 26.4821 150.717 26.5545 150.869 26.5545H151.661C152.027 26.5545 152.464 26.3268 152.971 25.8713C153.408 25.364 153.626 24.8101 153.626 24.2097C153.626 23.4436 153.306 22.7965 152.667 22.2685C152.23 21.9683 151.798 21.8182 151.372 21.8182Z" fill="#CB93FF"/>
<path d="M41.1267 42.8697C40.3611 42.8697 39.7247 42.6373 39.2177 42.1724C38.721 41.7075 38.4727 41.067 38.4727 40.2509V32.9986H38.9694V35.8034H41.1112V36.2373H38.9694V40.2509C38.9694 40.9327 39.1711 41.4699 39.5747 41.8625C39.9886 42.2447 40.5059 42.4358 41.1267 42.4358V42.8697Z" fill="#CB93FF"/>
<path d="M47.461 42.5288C47.999 42.5288 48.5112 42.3894 48.9975 42.1104C49.4838 41.8315 49.8874 41.4492 50.2081 40.9637V41.754C49.8253 42.1776 49.4062 42.4875 48.951 42.6838C48.4957 42.8697 47.9783 42.9627 47.3989 42.9627C46.7574 42.9627 46.1521 42.7923 45.583 42.4513C45.0242 42.1104 44.5741 41.6559 44.2327 41.0877C43.9016 40.5195 43.736 39.9151 43.736 39.2746C43.736 38.5824 43.9016 37.9626 44.2327 37.415C44.5638 36.8572 45.0139 36.4233 45.583 36.1134C46.1624 35.8034 46.8039 35.6485 47.5075 35.6485C48.5836 35.6485 49.4994 36.072 50.2547 36.9192L45.3812 41.723C45.7227 42.0019 46.0538 42.2086 46.3745 42.3429C46.6953 42.4668 47.0574 42.5288 47.461 42.5288ZM44.2327 39.2281C44.2327 40.0856 44.5172 40.8191 45.0863 41.4286L49.6339 36.9192C49.2924 36.6196 48.9613 36.4078 48.6406 36.2838C48.3198 36.1495 47.937 36.0824 47.492 36.0824C46.8609 36.0824 46.2969 36.2218 45.8003 36.5008C45.314 36.7694 44.9311 37.1413 44.6517 37.6165C44.3724 38.0917 44.2327 38.6289 44.2327 39.2281Z" fill="#CB93FF"/>
<path d="M56.7272 42.9782C56.0546 42.9782 55.4338 42.8181 54.8647 42.4978C54.306 42.1776 53.861 41.7385 53.5299 41.1806C53.1988 40.6228 53.0333 39.9926 53.0333 39.2901C53.0333 38.6393 53.1988 38.0401 53.5299 37.4925C53.861 36.9347 54.3111 36.4904 54.8802 36.1598C55.4597 35.8293 56.096 35.664 56.7893 35.664C57.3687 35.664 57.8654 35.7569 58.2792 35.9429C58.6931 36.1289 59.0967 36.4181 59.4898 36.8107V37.6475C59.1484 37.1413 58.7655 36.759 58.3413 36.5008C57.9274 36.2322 57.4101 36.0979 56.7893 36.0979C56.2202 36.0979 55.6821 36.2477 55.1751 36.5473C54.6784 36.8365 54.2801 37.2291 53.98 37.725C53.68 38.2209 53.5299 38.7529 53.5299 39.3211C53.5299 39.9409 53.6748 40.4988 53.9645 40.9947C54.2542 41.4802 54.6422 41.8625 55.1285 42.1414C55.6252 42.41 56.1581 42.5443 56.7272 42.5443C57.886 42.5443 58.8069 42.0226 59.4898 40.9792V41.816C59.1173 42.2086 58.7035 42.503 58.2482 42.6993C57.8033 42.8852 57.2963 42.9782 56.7272 42.9782Z" fill="#CB93FF"/>
<path d="M62.4933 31.1545H62.99V37.2446C63.2073 36.7797 63.5746 36.3975 64.092 36.0979C64.6197 35.7879 65.1525 35.633 65.6906 35.633C66.6736 35.633 67.4289 35.9016 67.9566 36.4388C68.4946 36.976 68.7637 37.7353 68.7637 38.7167V42.7768H68.267V38.7167C68.267 37.8696 68.0394 37.2188 67.5841 36.7642C67.1392 36.2993 66.508 36.0669 65.6906 36.0669C65.1939 36.0669 64.7386 36.1857 64.3248 36.4233C63.9109 36.6506 63.5849 36.9708 63.347 37.3841C63.109 37.787 62.99 38.2312 62.99 38.7167V42.7768H62.4933V31.1545Z" fill="#CB93FF"/>
<path d="M72.3532 35.8034H72.8498V37.3531C73.0775 36.8365 73.4655 36.4233 74.0139 36.1134C74.5623 35.7931 75.1676 35.633 75.8298 35.633C76.6886 35.633 77.3663 35.9067 77.863 36.4543C78.37 36.9915 78.6235 37.7456 78.6235 38.7167V42.7768H78.1269V38.7167C78.1269 37.8799 77.9199 37.2291 77.506 36.7642C77.1025 36.2993 76.5334 36.0669 75.7988 36.0669C75.2607 36.0669 74.764 36.1908 74.3088 36.4388C73.8638 36.6764 73.5069 37.007 73.2379 37.4305C72.9792 37.8541 72.8498 38.3345 72.8498 38.8717V42.7768H72.3532V35.8034Z" fill="#CB93FF"/>
<path d="M85.5344 43.0247C84.8308 43.0247 84.1945 42.8542 83.6254 42.5133C83.0563 42.1621 82.6114 41.7024 82.2906 41.1342C81.9699 40.5556 81.8095 39.9306 81.8095 39.2591C81.8095 38.5979 81.9699 37.9832 82.2906 37.415C82.6217 36.8468 83.0667 36.3975 83.6254 36.0669C84.1945 35.7259 84.8257 35.5555 85.5189 35.5555C86.2018 35.5555 86.8227 35.7259 87.3814 36.0669C87.9505 36.3975 88.3954 36.8468 88.7162 37.415C89.0369 37.9832 89.1973 38.5979 89.1973 39.2591C89.1973 39.9513 89.0421 40.5866 88.7317 41.1651C88.4213 41.7333 87.9867 42.1879 87.428 42.5288C86.8796 42.8594 86.2484 43.0247 85.5344 43.0247ZM85.5344 42.5908C86.1242 42.5908 86.6623 42.441 87.1486 42.1414C87.6349 41.8418 88.0126 41.4441 88.2816 40.9482C88.561 40.442 88.7007 39.8893 88.7007 39.2901C88.7007 38.7012 88.561 38.1537 88.2816 37.6475C88.0022 37.1413 87.6194 36.7384 87.1331 36.4388C86.6468 36.1392 86.1087 35.9894 85.5189 35.9894C84.9291 35.9894 84.3859 36.1443 83.8893 36.4543C83.4029 36.7539 83.0149 37.1568 82.7252 37.663C82.4458 38.1692 82.3061 38.7167 82.3061 39.3056C82.3061 39.8945 82.4458 40.442 82.7252 40.9482C83.0149 41.4441 83.4029 41.8418 83.8893 42.1414C84.3859 42.441 84.9343 42.5908 85.5344 42.5908Z" fill="#CB93FF"/>
<path d="M95.03 42.9162C94.5437 42.9162 94.0988 42.8078 93.6953 42.5908C93.2917 42.3635 92.971 42.0484 92.733 41.6455C92.495 41.2426 92.376 40.7932 92.376 40.2974V31.1545H92.8727V40.2974C92.8727 40.7106 92.9658 41.0825 93.152 41.4131C93.3486 41.7437 93.6125 42.0071 93.9436 42.2034C94.2747 42.3894 94.6369 42.4823 95.03 42.4823V42.9162Z" fill="#CB93FF"/>
<path d="M101.116 43.0247C100.413 43.0247 99.7764 42.8542 99.2073 42.5133C98.6382 42.1621 98.1933 41.7024 97.8725 41.1342C97.5517 40.5556 97.3914 39.9306 97.3914 39.2591C97.3914 38.5979 97.5517 37.9832 97.8725 37.415C98.2036 36.8468 98.6485 36.3975 99.2073 36.0669C99.7764 35.7259 100.408 35.5555 101.101 35.5555C101.784 35.5555 102.405 35.7259 102.963 36.0669C103.532 36.3975 103.977 36.8468 104.298 37.415C104.619 37.9832 104.779 38.5979 104.779 39.2591C104.779 39.9513 104.624 40.5866 104.314 41.1651C104.003 41.7333 103.569 42.1879 103.01 42.5288C102.461 42.8594 101.83 43.0247 101.116 43.0247ZM101.116 42.5908C101.706 42.5908 102.244 42.441 102.73 42.1414C103.217 41.8418 103.594 41.4441 103.863 40.9482C104.143 40.442 104.283 39.8893 104.283 39.2901C104.283 38.7012 104.143 38.1537 103.863 37.6475C103.584 37.1413 103.201 36.7384 102.715 36.4388C102.229 36.1392 101.691 35.9894 101.101 35.9894C100.511 35.9894 99.9678 36.1443 99.4711 36.4543C98.9848 36.7539 98.5968 37.1568 98.3071 37.663C98.0277 38.1692 97.888 38.7167 97.888 39.3056C97.888 39.8945 98.0277 40.442 98.3071 40.9482C98.5968 41.4441 98.9848 41.8418 99.4711 42.1414C99.9678 42.441 100.516 42.5908 101.116 42.5908Z" fill="#CB93FF"/>
<path d="M111.326 46C110.736 46 110.162 45.8657 109.603 45.5971C109.044 45.3285 108.61 44.9772 108.299 44.5433V43.8305C108.568 44.3264 108.987 44.7396 109.557 45.0702C110.136 45.4008 110.726 45.5661 111.326 45.5661C112.319 45.5661 113.085 45.2717 113.623 44.6828C114.161 44.1043 114.43 43.252 114.43 42.1259V41.0877C114.151 41.6455 113.711 42.1001 113.111 42.4513C112.521 42.7923 111.9 42.9627 111.248 42.9627C110.586 42.9627 109.97 42.7974 109.401 42.4668C108.832 42.1363 108.382 41.692 108.051 41.1342C107.72 40.566 107.554 39.9564 107.554 39.3056C107.554 38.6547 107.72 38.0504 108.051 37.4925C108.382 36.9243 108.832 36.4749 109.401 36.1443C109.97 35.8138 110.586 35.6485 111.248 35.6485C111.931 35.6485 112.562 35.8189 113.142 36.1598C113.721 36.5008 114.151 36.9605 114.43 37.539V35.8034H114.927V42.1259C114.927 43.3966 114.616 44.3574 113.995 45.0082C113.385 45.6694 112.495 46 111.326 46ZM111.279 42.5288C111.848 42.5288 112.376 42.3842 112.862 42.0949C113.349 41.7953 113.732 41.4028 114.011 40.9172C114.301 40.4213 114.446 39.8841 114.446 39.3056C114.446 38.7271 114.301 38.195 114.011 37.7095C113.732 37.2136 113.349 36.821 112.862 36.5318C112.376 36.2322 111.848 36.0824 111.279 36.0824C110.7 36.0824 110.162 36.2322 109.665 36.5318C109.179 36.821 108.786 37.2136 108.486 37.7095C108.196 38.195 108.051 38.7271 108.051 39.3056C108.051 39.8841 108.196 40.4213 108.486 40.9172C108.786 41.4028 109.179 41.7953 109.665 42.0949C110.162 42.3842 110.7 42.5288 111.279 42.5288Z" fill="#CB93FF"/>
<path d="M119.12 34.2073C118.975 34.2073 118.846 34.1557 118.732 34.0523C118.629 33.949 118.577 33.8199 118.577 33.6649C118.577 33.5203 118.629 33.3963 118.732 33.293C118.846 33.1897 118.975 33.1381 119.12 33.1381C119.265 33.1381 119.389 33.1897 119.493 33.293C119.607 33.3963 119.663 33.5203 119.663 33.6649C119.663 33.8199 119.607 33.949 119.493 34.0523C119.389 34.1557 119.265 34.2073 119.12 34.2073ZM118.872 35.8034H119.369V42.7768H118.872V35.8034Z" fill="#CB93FF"/>
<path d="M126.711 42.5288C127.249 42.5288 127.762 42.3894 128.248 42.1104C128.734 41.8315 129.138 41.4492 129.459 40.9637V41.754C129.076 42.1776 128.657 42.4875 128.201 42.6838C127.746 42.8697 127.229 42.9627 126.649 42.9627C126.008 42.9627 125.403 42.7923 124.833 42.4513C124.275 42.1104 123.825 41.6559 123.483 41.0877C123.152 40.5195 122.986 39.9151 122.986 39.2746C122.986 38.5824 123.152 37.9626 123.483 37.415C123.814 36.8572 124.264 36.4233 124.833 36.1134C125.413 35.8034 126.054 35.6485 126.758 35.6485C127.834 35.6485 128.75 36.072 129.505 36.9192L124.632 41.723C124.973 42.0019 125.304 42.2086 125.625 42.3429C125.946 42.4668 126.308 42.5288 126.711 42.5288ZM123.483 39.2281C123.483 40.0856 123.768 40.8191 124.337 41.4286L128.884 36.9192C128.543 36.6196 128.212 36.4078 127.891 36.2838C127.57 36.1495 127.187 36.0824 126.742 36.0824C126.111 36.0824 125.547 36.2218 125.051 36.5008C124.564 36.7694 124.182 37.1413 123.902 37.6165C123.623 38.0917 123.483 38.6289 123.483 39.2281Z" fill="#CB93FF"/>
<path d="M134.379 42.9472C133.882 42.9472 133.443 42.8646 133.06 42.6993C132.677 42.5237 132.403 42.3015 132.237 42.0329V41.2116C132.434 41.6559 132.703 41.9865 133.044 42.2034C133.386 42.41 133.82 42.5133 134.348 42.5133C134.855 42.5133 135.264 42.3584 135.574 42.0484C135.884 41.7282 136.04 41.3201 136.04 40.8242C136.04 40.4007 135.952 40.0752 135.776 39.848C135.6 39.6104 135.315 39.3727 134.922 39.1351L134.332 38.7942C133.908 38.5359 133.587 38.3345 133.37 38.1899C133.163 38.0349 132.998 37.8644 132.873 37.6785C132.749 37.4822 132.687 37.2549 132.687 36.9966C132.687 36.5834 132.832 36.2528 133.122 36.0049C133.412 35.7569 133.789 35.633 134.255 35.633C134.824 35.633 135.3 35.7621 135.683 36.0204V36.7022C135.362 36.2787 134.902 36.0669 134.301 36.0669C133.97 36.0669 133.701 36.1495 133.494 36.3148C133.287 36.4801 133.184 36.6919 133.184 36.9502C133.184 37.1774 133.246 37.3789 133.37 37.5545C133.494 37.7198 133.665 37.8748 133.882 38.0194C134.11 38.164 134.482 38.381 135 38.6702C135.528 38.9698 135.916 39.2798 136.164 39.6C136.412 39.9099 136.536 40.318 136.536 40.8242C136.536 41.4647 136.324 41.9813 135.9 42.3739C135.486 42.7561 134.979 42.9472 134.379 42.9472Z" fill="#CB93FF"/>
<circle cx="26.0318" cy="38.5773" r="4.07727" fill="#CB93FF"/>
<circle cx="148.977" cy="38.5773" r="4.07727" fill="#CB93FF"/>
</svg>
