<svg width="49" height="49" viewBox="0 0 49 49" fill="none" xmlns="http://www.w3.org/2000/svg">
<rect width="49" height="49" rx="24.5" fill="white" fill-opacity="0.21"/>
<path d="M17.247 11.2599C16.7797 11.2219 16.2603 11.3571 15.7812 11.6939C15.359 11.9879 14.4482 12.7113 13.5967 13.5294C13.1722 13.9374 12.7666 14.3619 12.4535 14.7793C12.138 15.1967 11.8629 15.5785 11.8795 16.1334C11.8961 16.6314 11.9459 18.1042 13.0061 20.3619C14.0663 22.6173 16.1227 25.7121 20.1335 29.7248C24.1467 33.7375 27.242 35.7936 29.4976 36.8537C31.7532 37.9138 33.2285 37.9636 33.7266 37.9802C34.2793 37.9968 34.6611 37.7217 35.0786 37.4063C35.496 37.0909 35.9206 36.6877 36.3285 36.2632C37.1445 35.4118 37.8679 34.5011 38.162 34.079C38.8332 33.1233 38.7217 31.9944 37.9746 31.4703C37.505 31.1406 33.1858 28.2663 32.5359 27.8679C31.8766 27.4647 31.1176 27.6473 30.4392 28.0054C29.9056 28.2877 28.4611 29.1153 28.0484 29.3525C27.7377 29.1556 26.5589 28.3707 24.0234 25.8355C21.4855 23.3003 20.7028 22.1216 20.5059 21.8109C20.7431 21.3983 21.5685 19.9611 21.8531 19.418C22.2089 18.7421 22.4081 17.9761 21.9836 17.3121C21.8057 17.0299 20.9969 15.799 20.181 14.5634C19.3627 13.3279 18.5871 12.1563 18.3855 11.8765V11.8741C18.1222 11.5112 17.7119 11.2978 17.247 11.2599ZM17.1355 12.5002C17.3015 12.5215 17.4012 12.5879 17.4012 12.5879C17.4984 12.7231 18.3499 13.999 19.1658 15.2322C19.9817 16.4678 20.8143 17.7342 20.9589 17.9643C20.9827 17.9998 21.0159 18.403 20.7787 18.8512V18.8536C20.5107 19.3635 19.2607 21.5477 19.2607 21.5477L19.0876 21.8536L19.2654 22.1572C19.2654 22.1572 20.1976 23.7295 23.1624 26.694C26.1296 29.6584 27.7021 30.5928 27.7021 30.5928L28.0057 30.7707L28.3117 30.5976C28.3117 30.5976 30.4914 29.3501 31.0061 29.0798C31.4544 28.845 31.8576 28.8758 31.905 28.9043C32.3249 29.1628 36.9903 32.2624 37.2773 32.464C37.2868 32.4711 37.5406 32.8553 37.1705 33.3818H37.1682C36.9452 33.7019 36.2147 34.6292 35.4533 35.4213C35.0715 35.8174 34.6801 36.1873 34.348 36.4363C34.016 36.6853 33.7195 36.7636 33.7669 36.766C33.2499 36.7494 32.109 36.7375 30.0147 35.7533C27.9203 34.7715 24.9318 32.8055 20.9921 28.8639C17.0549 24.9272 15.0886 21.939 14.1043 19.8425C13.1223 17.7484 13.1105 16.6077 13.0939 16.0931C13.0963 16.1405 13.1745 15.8417 13.4236 15.5097C13.6726 15.1777 14.0403 14.784 14.4364 14.4022C15.2309 13.6409 16.1559 12.9105 16.4761 12.6875V12.6899C16.7394 12.5049 16.9695 12.4812 17.1355 12.5002Z" fill="white"/>
</svg>
